<?xml version="1.0" standalone="no"?>
<!DOCTYPE svg PUBLIC "-//W3C//DTD SVG 20010904//EN"
 "http://www.w3.org/TR/2001/REC-SVG-20010904/DTD/svg10.dtd">
<svg version="1.0" xmlns="http://www.w3.org/2000/svg"
 width="433.000000pt" height="432.000000pt" viewBox="0 0 433.000000 432.000000"
 preserveAspectRatio="xMidYMid meet">
<metadata>
Created by potrace 1.16, written by Peter Selinger 2001-2019
</metadata>
<g transform="translate(0.000000,432.000000) scale(0.100000,-0.100000)"
fill="#000000" stroke="none">
<path d="M0 2160 l0 -2160 2165 0 2165 0 0 2160 0 2160 -2165 0 -2165 0 0
-2160z m3649 1814 c81 -24 191 -80 191 -96 0 -5 4 -8 10 -8 10 0 80 -67 80
-77 0 -3 6 -11 14 -17 24 -19 68 -109 87 -178 34 -120 22 -257 -30 -368 -41
-86 -104 -154 -596 -647 l-522 -522 141 -135 c77 -74 237 -228 353 -343 117
-114 330 -322 473 -462 143 -140 260 -261 260 -268 0 -7 4 -13 9 -13 4 0 18
-25 30 -56 25 -67 29 -207 7 -257 -8 -18 -17 -39 -20 -47 -23 -57 -110 -146
-172 -175 -105 -50 -228 -63 -307 -33 -43 16 41 -66 -1044 1025 -133 134 -244
243 -246 243 -3 0 -270 -264 -594 -587 -631 -631 -618 -620 -767 -667 -65 -21
-217 -21 -282 0 -183 57 -312 183 -375 363 -18 52 -19 108 -19 1482 l0 1428
23 64 c64 176 186 293 372 355 20 7 521 11 1449 11 1290 1 1424 0 1475 -15z"/>
<path d="M1064 3258 c-6 -9 -10 -1978 -4 -1978 10 0 1970 1965 1970 1975 0 11
-1959 15 -1966 3z"/>
</g>
</svg>
